<?xml version="1.0" encoding="UTF-8" standalone="no"?>
<!-- Created with Inkscape (http://www.inkscape.org/) -->

<svg
   version="1.1"
   id="svg2858"
   width="391.79129"
   height="143.46814"
   viewBox="0 0 391.79129 143.46814"
   xml:space="preserve"
   xmlns="http://www.w3.org/2000/svg"
   xmlns:svg="http://www.w3.org/2000/svg"><defs
     id="defs2862"><rect
       x="230.03819"
       y="290.11691"
       width="403.95023"
       height="95.651619"
       id="rect2950" /></defs><g
     id="g2864"
     transform="translate(-488.83072,-266.23056)"><path
       style="fill:#ffffff;stroke-width:1.00382"
       d="m 553.23271,404.07729 c 3.01934,-3.09178 8.13253,-8.17085 11.36264,-11.28683 l 5.87293,-5.66541 17.80691,-0.50164 17.80691,-0.50164 8.4599,-4.19725 c 25.05195,-12.42916 34.71926,-39.94934 22.87513,-65.11923 -2.95649,-6.28279 -12.81445,-16.69157 -19.34093,-20.42157 -8.37883,-4.78866 -15.19778,-6.07459 -32.21218,-6.07459 H 570.74206 L 559.2246,278.77148 547.70715,267.23383 h 27.1851 c 15.98007,0 29.63451,0.46602 33.12773,1.13065 7.95446,1.51342 23.19568,8.72401 30.30794,14.3386 30.06354,23.73297 35.93647,68.0884 12.93205,97.66952 -11.17378,14.36825 -22.88662,22.30584 -39.80123,26.97263 -7.99278,2.20524 -10.26804,2.35347 -36.1229,2.35347 H 547.743 Z m 102.71062,-2.93021 7.53211,-7.54835 58.44234,0.27462 58.44234,0.27461 2.42352,2.81495 c 3.07854,3.57577 3.06688,6.16469 -0.0418,9.26994 l -2.46522,2.46258 h -65.9327 -65.93271 z m 147.55462,-5.96802 -6.24952,-12.47936 29.13262,-58.23457 29.13263,-58.23457 h 12.55416 c 6.9048,0 12.55417,0.26415 12.55417,0.58701 0,0.7919 -69.32907,139.17253 -70.1931,140.10526 -0.37478,0.40458 -3.49371,-4.88013 -6.93096,-11.74377 z m -131.84932,-14.82611 4.02057,-7.27374 32.924,-0.28025 c 18.1082,-0.15414 33.95242,-0.0298 35.20937,0.27634 6.40444,1.55977 8.36576,8.89797 3.33469,12.47652 -2.82644,2.01041 -4.10666,2.07486 -41.21313,2.07486 h -38.29608 z m -93.18945,-8.58249 c -1.04757,-0.72603 -0.25408,-1.99278 3.49773,-5.58398 4.77106,-4.56679 4.96431,-4.64491 11.49009,-4.64491 12.89592,0 21.4704,-4.49091 25.6357,-13.42679 4.08294,-8.75918 2.83971,-18.48404 -3.27531,-25.6203 -5.06429,-5.91003 -10.45606,-8.10254 -19.9894,-8.12842 l -7.96893,-0.0217 -5.27293,-5.06588 c -2.90011,-2.78624 -5.27292,-5.30193 -5.27292,-5.59044 0,-0.28851 6.4405,-0.36662 14.31222,-0.17359 13.06999,0.3205 14.81928,0.58773 20.154,3.07887 17.02083,7.94816 24.87255,28.04593 17.37265,44.46811 -3.53498,7.74037 -10.39851,14.65504 -17.87222,18.00539 -5.10935,2.29044 -7.68953,2.72525 -18.69167,3.14994 -7.19143,0.27758 -13.35562,0.0827 -14.11901,-0.44636 z m 100.81135,-9.97808 c 0.72086,-2.62105 1.58391,-6.0071 1.91788,-7.52455 l 0.60722,-2.759 h 28.1488 28.14879 l 2.46526,2.46258 c 3.22919,3.22568 3.15702,7.02556 -0.19231,10.12625 l -2.65759,2.46027 h -29.87435 -29.87435 z m 3.4912,-23.78724 v -7.48404 l 31.88865,-0.29133 c 34.46729,-0.31488 37.08396,0.001 39.24554,4.74012 0.95461,2.09287 0.94197,3.21786 -0.0596,5.30431 -2.39536,4.99012 -3.83973,5.18429 -38.6838,5.2002 l -32.39083,0.0148 z m -1.42252,-14.8388 c -1.02404,-3.61639 -3.59931,-13.83469 -3.59931,-14.2815 0,-1.04533 35.90304,-0.50091 39.04164,0.59202 7.08858,2.46841 6.91977,11.17042 -0.26966,13.90086 -4.11394,1.56241 -34.72249,1.37847 -35.17267,-0.21138 z m -8.22413,-24.07856 c -0.91483,-1.79336 -2.78852,-5.19864 -4.16378,-7.56729 l -2.50046,-4.30665 30.14764,0.29356 c 28.00345,0.27267 30.2979,0.42948 32.26026,2.20477 1.2902,1.16721 2.10662,3.12001 2.09722,5.01637 -0.0358,7.22269 -1.6531,7.61987 -31.02817,7.61987 h -25.14941 z m -12.66091,-19.3294 c -0.71229,-0.83671 -4.37157,-4.22276 -8.13175,-7.52455 l -6.83669,-6.00327 h 46.11143 46.11142 l 2.65759,2.46028 c 3.34933,3.10069 3.4215,6.90057 0.19231,10.12624 l -2.46526,2.46259 h -38.172 c -32.87434,0 -38.35173,-0.21113 -39.46705,-1.52129 z"
       id="path2880" /><text
       xml:space="preserve"
       id="text2948"
       style="font-style:normal;font-variant:normal;font-weight:normal;font-stretch:normal;font-size:53.3333px;font-family:'Flipside BRK';-inkscape-font-specification:'Flipside BRK';text-align:center;white-space:pre;shape-inside:url(#rect2950);fill:#ffffff"
       transform="translate(256.125,14.229166)"
       x="-161.3331"
       y="0"><tspan
         x="230.03906"
         y="344.19123"
         id="tspan3222"><tspan
           style="text-align:start;text-anchor:start"
           id="tspan3220">Fin</tspan></tspan></text></g></svg>
