<?xml version="1.0" standalone="no"?>
<!DOCTYPE svg PUBLIC "-//W3C//DTD SVG 20010904//EN"
 "http://www.w3.org/TR/2001/REC-SVG-20010904/DTD/svg10.dtd">
<svg version="1.0" xmlns="http://www.w3.org/2000/svg"
 width="1890.000000pt" height="1417.000000pt" viewBox="0 0 1890.000000 1417.000000"
 preserveAspectRatio="xMidYMid meet">

<g transform="translate(0.000000,1417.000000) scale(0.100000,-0.100000)"
fill="#000000" stroke="none">
<path d="M6802 7650 l-40 -100 329 0 329 0 0 100 0 100 -289 0 -289 0 -40
-100z"/>
<path d="M8852 7650 l-40 -100 112 0 113 0 123 -300 123 -300 93 0 94 0 0 400
0 400 -85 0 -85 0 -2 -191 -3 -192 -44 109 c-24 60 -60 146 -79 192 l-34 82
-123 0 -123 0 -40 -100z"/>
<path d="M9592 7651 l-40 -101 181 0 c170 0 185 -2 222 -23 56 -31 85 -91 85
-177 0 -128 -68 -200 -187 -200 l-53 0 0 -101 0 -102 78 6 c182 12 295 124
322 320 8 55 8 99 0 154 -20 144 -83 239 -192 289 -59 27 -72 29 -219 32
l-156 4 -41 -101z"/>
<path d="M10572 7651 l-40 -101 181 0 c170 0 185 -2 222 -23 56 -31 85 -91 85
-177 0 -128 -68 -200 -187 -200 l-53 0 0 -101 0 -102 78 6 c182 12 295 124
322 320 8 55 8 99 0 154 -20 144 -83 239 -192 289 -59 27 -72 29 -219 32
l-156 4 -41 -101z"/>
<path d="M11312 7650 l-40 -100 329 0 329 0 0 100 0 100 -289 0 -289 0 -40
-100z"/>
<path d="M12052 7650 l-40 -100 79 0 79 0 0 100 0 100 -39 0 -39 0 -40 -100z"/>
<path d="M12500 7449 l0 -301 -37 7 c-133 24 -231 113 -269 243 l-15 52 -80 0
-80 0 7 -37 c35 -194 136 -352 265 -414 75 -37 142 -49 269 -49 l110 0 0 400
0 400 -85 0 -85 0 0 -301z"/>
<path d="M7959 7600 c-155 -32 -312 -119 -444 -243 -69 -66 -89 -95 -24 -36
102 92 255 182 378 222 56 19 89 22 211 22 126 0 154 -3 215 -24 132 -44 225
-103 347 -219 77 -73 111 -80 116 -26 2 25 -4 37 -31 61 -145 127 -347 226
-517 253 -90 14 -151 12 -251 -10z"/>
<path d="M7968 7530 c-115 -20 -268 -89 -384 -176 -97 -71 -105 -89 -13 -27
41 28 98 62 126 77 61 31 153 68 153 61 0 -2 -10 -21 -22 -42 -32 -53 -32
-160 -1 -219 48 -91 114 -135 215 -142 59 -4 75 -1 122 22 31 15 69 44 86 64
63 77 77 195 32 280 -12 23 -18 42 -14 42 20 0 117 -66 172 -116 109 -101 116
-143 38 -219 -204 -196 -543 -216 -857 -49 -82 43 -92 37 -14 -8 173 -100 355
-142 517 -119 156 21 325 88 393 154 l33 31 23 -22 c27 -26 59 -28 81 -6 39
39 7 111 -90 205 -184 176 -382 245 -596 209z m121 -131 c35 -12 61 -53 61
-94 0 -42 -50 -85 -98 -85 -93 0 -126 130 -45 174 34 19 41 19 82 5z m-152
-104 l11 -36 -47 -24 -48 -24 -12 38 c-21 72 -17 81 37 81 47 0 49 -1 59 -35z"/>
<path d="M6760 7200 l0 -250 80 0 80 0 0 150 0 150 250 0 250 0 0 100 0 100
-330 0 -330 0 0 -250z"/>
<path d="M8810 7200 l0 -250 80 0 80 0 0 250 0 250 -80 0 -80 0 0 -250z"/>
<path d="M9550 7200 l0 -250 80 0 80 0 0 250 0 250 -80 0 -80 0 0 -250z"/>
<path d="M10530 7200 l0 -250 80 0 80 0 0 250 0 250 -80 0 -80 0 0 -250z"/>
<path d="M11270 7200 l0 -250 330 0 330 0 0 100 0 100 -250 0 -250 0 0 50 0
50 250 0 250 0 0 100 0 100 -330 0 -330 0 0 -250z"/>
<path d="M10290 7050 l0 -100 80 0 80 0 0 100 0 100 -80 0 -80 0 0 -100z"/>
</g>
</svg>
